<svg width="375" height="81" viewBox="0 0 375 81" fill="none" xmlns="http://www.w3.org/2000/svg">
<rect width="375" height="81" fill="#F2F2F2"/>
<rect width="375" height="856" fill="white"/>
<path fill-rule="evenodd" clip-rule="evenodd" d="M0 73.2798C17.3794 72.4277 76 52.9201 161.151 73.2798C246.303 93.6395 293.036 66.1313 375 76.1506C375 37.492 375 0 375 0L0 0C0 0 0 32.1512 0 73.2798Z" fill="#F8F8F8"/>
<path d="M136.672 25.4297C135.76 25.4297 135.055 25.7734 134.555 26.4609C134.055 27.1432 133.805 28.0964 133.805 29.3203C133.805 31.8672 134.76 33.1406 136.672 33.1406C137.474 33.1406 138.445 32.9401 139.586 32.5391V34.5703C138.648 34.9609 137.602 35.1562 136.445 35.1562C134.784 35.1562 133.513 34.6536 132.633 33.6484C131.753 32.638 131.312 31.1901 131.312 29.3047C131.312 28.1172 131.529 27.0781 131.961 26.1875C132.393 25.2917 133.013 24.6068 133.82 24.1328C134.633 23.6536 135.583 23.4141 136.672 23.4141C137.781 23.4141 138.896 23.6823 140.016 24.2188L139.234 26.1875C138.807 25.9844 138.378 25.8073 137.945 25.6562C137.513 25.5052 137.089 25.4297 136.672 25.4297ZM152.391 29.2734C152.391 31.1641 151.922 32.6172 150.984 33.6328C150.047 34.6484 148.703 35.1562 146.953 35.1562C145.203 35.1562 143.859 34.6484 142.922 33.6328C141.984 32.6172 141.516 31.1589 141.516 29.2578C141.516 27.3568 141.984 25.9062 142.922 24.9062C143.865 23.901 145.214 23.3984 146.969 23.3984C148.724 23.3984 150.065 23.9036 150.992 24.9141C151.924 25.9245 152.391 27.3776 152.391 29.2734ZM144.055 29.2734C144.055 30.5495 144.297 31.5104 144.781 32.1562C145.266 32.8021 145.99 33.125 146.953 33.125C148.885 33.125 149.852 31.8411 149.852 29.2734C149.852 26.7005 148.891 25.4141 146.969 25.4141C146.005 25.4141 145.279 25.7396 144.789 26.3906C144.299 27.0365 144.055 27.9974 144.055 29.2734ZM164.234 29.1797C164.234 31.0599 163.698 32.5 162.625 33.5C161.557 34.5 160.013 35 157.992 35H154.758V23.5781H158.344C160.208 23.5781 161.656 24.0703 162.688 25.0547C163.719 26.0391 164.234 27.4141 164.234 29.1797ZM161.719 29.2422C161.719 26.7891 160.635 25.5625 158.469 25.5625H157.18V33H158.219C160.552 33 161.719 31.7474 161.719 29.2422ZM173.18 35H166.602V23.5781H173.18V25.5625H169.023V28.0703H172.891V30.0547H169.023V33H173.18V35ZM179.727 23.5781H183.281C184.901 23.5781 186.076 23.8099 186.805 24.2734C187.539 24.7318 187.906 25.4635 187.906 26.4688C187.906 27.151 187.745 27.7109 187.422 28.1484C187.104 28.5859 186.68 28.849 186.148 28.9375V29.0156C186.872 29.1771 187.393 29.4792 187.711 29.9219C188.034 30.3646 188.195 30.9531 188.195 31.6875C188.195 32.7292 187.818 33.5417 187.062 34.125C186.312 34.7083 185.292 35 184 35H179.727V23.5781ZM182.148 28.1016H183.555C184.211 28.1016 184.685 28 184.977 27.7969C185.273 27.5938 185.422 27.2578 185.422 26.7891C185.422 26.3516 185.26 26.0391 184.938 25.8516C184.62 25.6589 184.115 25.5625 183.422 25.5625H182.148V28.1016ZM182.148 30.0234V33H183.727C184.393 33 184.885 32.8724 185.203 32.6172C185.521 32.362 185.68 31.9714 185.68 31.4453C185.68 30.4974 185.003 30.0234 183.648 30.0234H182.148ZM199.773 23.5781V30.9688C199.773 31.8125 199.583 32.5521 199.203 33.1875C198.828 33.8229 198.284 34.3099 197.57 34.6484C196.857 34.987 196.013 35.1562 195.039 35.1562C193.57 35.1562 192.43 34.7812 191.617 34.0312C190.805 33.276 190.398 32.2448 190.398 30.9375V23.5781H192.812V30.5703C192.812 31.4505 192.99 32.0964 193.344 32.5078C193.698 32.9193 194.284 33.125 195.102 33.125C195.893 33.125 196.466 32.9193 196.82 32.5078C197.18 32.0911 197.359 31.4401 197.359 30.5547V23.5781H199.773ZM212.047 29.1797C212.047 31.0599 211.51 32.5 210.438 33.5C209.37 34.5 207.826 35 205.805 35H202.57V23.5781H206.156C208.021 23.5781 209.469 24.0703 210.5 25.0547C211.531 26.0391 212.047 27.4141 212.047 29.1797ZM209.531 29.2422C209.531 26.7891 208.448 25.5625 206.281 25.5625H204.992V33H206.031C208.365 33 209.531 31.7474 209.531 29.2422ZM223.891 29.1797C223.891 31.0599 223.354 32.5 222.281 33.5C221.214 34.5 219.669 35 217.648 35H214.414V23.5781H218C219.865 23.5781 221.312 24.0703 222.344 25.0547C223.375 26.0391 223.891 27.4141 223.891 29.1797ZM221.375 29.2422C221.375 26.7891 220.292 25.5625 218.125 25.5625H216.836V33H217.875C220.208 33 221.375 31.7474 221.375 29.2422ZM229.812 28.2812L232.195 23.5781H234.805L231.016 30.5547V35H228.609V30.6328L224.82 23.5781H227.445L229.812 28.2812ZM242.984 31.8281C242.984 32.8594 242.612 33.6719 241.867 34.2656C241.128 34.8594 240.096 35.1562 238.773 35.1562C237.555 35.1562 236.477 34.9271 235.539 34.4688V32.2188C236.31 32.5625 236.961 32.8047 237.492 32.9453C238.029 33.0859 238.518 33.1562 238.961 33.1562C239.492 33.1562 239.898 33.0547 240.18 32.8516C240.466 32.6484 240.609 32.3464 240.609 31.9453C240.609 31.7214 240.547 31.5234 240.422 31.3516C240.297 31.1745 240.112 31.0052 239.867 30.8438C239.628 30.6823 239.135 30.4245 238.391 30.0703C237.693 29.7422 237.169 29.4271 236.82 29.125C236.471 28.8229 236.193 28.4714 235.984 28.0703C235.776 27.6693 235.672 27.2005 235.672 26.6641C235.672 25.6536 236.013 24.8594 236.695 24.2812C237.383 23.7031 238.331 23.4141 239.539 23.4141C240.133 23.4141 240.698 23.4844 241.234 23.625C241.776 23.7656 242.341 23.9635 242.93 24.2188L242.148 26.1016C241.539 25.8516 241.034 25.6771 240.633 25.5781C240.237 25.4792 239.846 25.4297 239.461 25.4297C239.003 25.4297 238.651 25.5365 238.406 25.75C238.161 25.9635 238.039 26.2422 238.039 26.5859C238.039 26.7995 238.089 26.987 238.188 27.1484C238.286 27.3047 238.443 27.4583 238.656 27.6094C238.875 27.7552 239.388 28.0208 240.195 28.4062C241.263 28.9167 241.995 29.4297 242.391 29.9453C242.786 30.4557 242.984 31.0833 242.984 31.8281Z" fill="#193251"/>
<path d="M122.643 51.7832C122.643 52.8301 122.379 53.6484 121.852 54.2383C121.324 54.8242 120.596 55.1172 119.666 55.1172C119.092 55.1172 118.582 54.9824 118.137 54.7129C117.691 54.4434 117.348 54.0566 117.105 53.5527C116.863 53.0488 116.742 52.459 116.742 51.7832C116.742 50.7363 117.004 49.9219 117.527 49.3398C118.051 48.7539 118.777 48.4609 119.707 48.4609C120.605 48.4609 121.318 48.7598 121.846 49.3574C122.377 49.9551 122.643 50.7637 122.643 51.7832ZM117.75 51.7832C117.75 52.6035 117.914 53.2285 118.242 53.6582C118.57 54.0879 119.053 54.3027 119.689 54.3027C120.326 54.3027 120.809 54.0898 121.137 53.6641C121.469 53.2344 121.635 52.6074 121.635 51.7832C121.635 50.9668 121.469 50.3477 121.137 49.9258C120.809 49.5 120.322 49.2871 119.678 49.2871C119.041 49.2871 118.561 49.4961 118.236 49.9141C117.912 50.332 117.75 50.9551 117.75 51.7832ZM128.748 55V50.8457C128.748 50.3223 128.629 49.9316 128.391 49.6738C128.152 49.416 127.779 49.2871 127.271 49.2871C126.6 49.2871 126.107 49.4688 125.795 49.832C125.482 50.1953 125.326 50.7949 125.326 51.6309V55H124.354V48.5781H125.145L125.303 49.457H125.35C125.549 49.1406 125.828 48.8965 126.188 48.7246C126.547 48.5488 126.947 48.4609 127.389 48.4609C128.162 48.4609 128.744 48.6484 129.135 49.0234C129.525 49.3945 129.721 49.9902 129.721 50.8105V55H128.748ZM138.779 55L135.873 47.4062H135.826C135.881 48.0078 135.908 48.7227 135.908 49.5508V55H134.988V46.4336H136.488L139.201 53.5H139.248L141.984 46.4336H143.473V55H142.477V49.4805C142.477 48.8477 142.504 48.1602 142.559 47.418H142.512L139.582 55H138.779ZM151.225 51.7832C151.225 52.8301 150.961 53.6484 150.434 54.2383C149.906 54.8242 149.178 55.1172 148.248 55.1172C147.674 55.1172 147.164 54.9824 146.719 54.7129C146.273 54.4434 145.93 54.0566 145.688 53.5527C145.445 53.0488 145.324 52.459 145.324 51.7832C145.324 50.7363 145.586 49.9219 146.109 49.3398C146.633 48.7539 147.359 48.4609 148.289 48.4609C149.188 48.4609 149.9 48.7598 150.428 49.3574C150.959 49.9551 151.225 50.7637 151.225 51.7832ZM146.332 51.7832C146.332 52.6035 146.496 53.2285 146.824 53.6582C147.152 54.0879 147.635 54.3027 148.271 54.3027C148.908 54.3027 149.391 54.0898 149.719 53.6641C150.051 53.2344 150.217 52.6074 150.217 51.7832C150.217 50.9668 150.051 50.3477 149.719 49.9258C149.391 49.5 148.904 49.2871 148.26 49.2871C147.623 49.2871 147.143 49.4961 146.818 49.9141C146.494 50.332 146.332 50.9551 146.332 51.7832ZM157.33 55V50.8457C157.33 50.3223 157.211 49.9316 156.973 49.6738C156.734 49.416 156.361 49.2871 155.854 49.2871C155.182 49.2871 154.689 49.4688 154.377 49.832C154.064 50.1953 153.908 50.7949 153.908 51.6309V55H152.936V48.5781H153.727L153.885 49.457H153.932C154.131 49.1406 154.41 48.8965 154.77 48.7246C155.129 48.5488 155.529 48.4609 155.971 48.4609C156.744 48.4609 157.326 48.6484 157.717 49.0234C158.107 49.3945 158.303 49.9902 158.303 50.8105V55H157.33ZM164.678 54.1387H164.625C164.176 54.791 163.504 55.1172 162.609 55.1172C161.77 55.1172 161.115 54.8301 160.646 54.2559C160.182 53.6816 159.949 52.8652 159.949 51.8066C159.949 50.748 160.184 49.9258 160.652 49.3398C161.121 48.7539 161.773 48.4609 162.609 48.4609C163.48 48.4609 164.148 48.7773 164.613 49.4102H164.689L164.648 48.9473L164.625 48.4961V45.8828H165.598V55H164.807L164.678 54.1387ZM162.732 54.3027C163.396 54.3027 163.877 54.123 164.174 53.7637C164.475 53.4004 164.625 52.8164 164.625 52.0117V51.8066C164.625 50.8965 164.473 50.248 164.168 49.8613C163.867 49.4707 163.385 49.2754 162.721 49.2754C162.15 49.2754 161.713 49.498 161.408 49.9434C161.107 50.3848 160.957 51.0098 160.957 51.8184C160.957 52.6387 161.107 53.2578 161.408 53.6758C161.709 54.0938 162.15 54.3027 162.732 54.3027ZM171.615 55L171.422 54.0859H171.375C171.055 54.4883 170.734 54.7617 170.414 54.9062C170.098 55.0469 169.701 55.1172 169.225 55.1172C168.588 55.1172 168.088 54.9531 167.725 54.625C167.365 54.2969 167.186 53.8301 167.186 53.2246C167.186 51.9277 168.223 51.248 170.297 51.1855L171.387 51.1504V50.752C171.387 50.248 171.277 49.877 171.059 49.6387C170.844 49.3965 170.498 49.2754 170.021 49.2754C169.486 49.2754 168.881 49.4395 168.205 49.7676L167.906 49.0234C168.223 48.8516 168.568 48.7168 168.943 48.6191C169.322 48.5215 169.701 48.4727 170.08 48.4727C170.846 48.4727 171.412 48.6426 171.779 48.9824C172.15 49.3223 172.336 49.8672 172.336 50.6172V55H171.615ZM169.418 54.3145C170.023 54.3145 170.498 54.1484 170.842 53.8164C171.189 53.4844 171.363 53.0195 171.363 52.4219V51.8418L170.391 51.8828C169.617 51.9102 169.059 52.0312 168.715 52.2461C168.375 52.457 168.205 52.7871 168.205 53.2363C168.205 53.5879 168.311 53.8555 168.521 54.0391C168.736 54.2227 169.035 54.3145 169.418 54.3145ZM173.326 48.5781H174.369L175.775 52.2402C176.084 53.0762 176.275 53.6797 176.35 54.0508H176.396C176.447 53.8516 176.553 53.5117 176.713 53.0312C176.877 52.5469 177.408 51.0625 178.307 48.5781H179.35L176.59 55.8906C176.316 56.6133 175.996 57.125 175.629 57.4258C175.266 57.7305 174.818 57.8828 174.287 57.8828C173.99 57.8828 173.697 57.8496 173.408 57.7832V57.0039C173.623 57.0508 173.863 57.0742 174.129 57.0742C174.797 57.0742 175.273 56.6992 175.559 55.9492L175.916 55.0352L173.326 48.5781ZM182.959 52.2285V51.3379H193.998V52.2285H182.959ZM201.785 55H200.836V48.8945C200.836 48.3867 200.852 47.9062 200.883 47.4531C200.801 47.5352 200.709 47.6211 200.607 47.7109C200.506 47.8008 200.041 48.1816 199.213 48.8535L198.697 48.1855L200.965 46.4336H201.785V55ZM207.885 46.3105C208.666 46.3105 209.285 46.4922 209.742 46.8555C210.199 47.2188 210.428 47.7207 210.428 48.3613C210.428 48.7832 210.297 49.168 210.035 49.5156C209.773 49.8633 209.355 50.1797 208.781 50.4648C209.477 50.7969 209.971 51.1465 210.264 51.5137C210.557 51.877 210.703 52.2988 210.703 52.7793C210.703 53.4902 210.455 54.0586 209.959 54.4844C209.463 54.9062 208.783 55.1172 207.92 55.1172C207.006 55.1172 206.303 54.918 205.811 54.5195C205.318 54.1172 205.072 53.5488 205.072 52.8145C205.072 51.834 205.67 51.0703 206.865 50.5234C206.326 50.2188 205.939 49.8906 205.705 49.5391C205.471 49.1836 205.354 48.7871 205.354 48.3496C205.354 47.7285 205.582 47.2344 206.039 46.8672C206.5 46.4961 207.115 46.3105 207.885 46.3105ZM206.033 52.8379C206.033 53.3066 206.195 53.6719 206.52 53.9336C206.848 54.1953 207.307 54.3262 207.896 54.3262C208.479 54.3262 208.932 54.1895 209.256 53.916C209.58 53.6426 209.742 53.2676 209.742 52.791C209.742 52.4121 209.59 52.0762 209.285 51.7832C208.98 51.4863 208.449 51.1992 207.691 50.9219C207.109 51.1719 206.688 51.4492 206.426 51.7539C206.164 52.0547 206.033 52.416 206.033 52.8379ZM207.873 47.1016C207.385 47.1016 207.002 47.2188 206.725 47.4531C206.447 47.6875 206.309 48 206.309 48.3906C206.309 48.75 206.424 49.0586 206.654 49.3164C206.885 49.5742 207.311 49.832 207.932 50.0898C208.49 49.8555 208.885 49.6035 209.115 49.334C209.35 49.0645 209.467 48.75 209.467 48.3906C209.467 47.9961 209.324 47.6836 209.039 47.4531C208.758 47.2188 208.369 47.1016 207.873 47.1016ZM212.221 54.3789C212.221 54.1172 212.279 53.9199 212.396 53.7871C212.518 53.6504 212.689 53.582 212.912 53.582C213.139 53.582 213.314 53.6504 213.439 53.7871C213.568 53.9199 213.633 54.1172 213.633 54.3789C213.633 54.6328 213.568 54.8281 213.439 54.9648C213.311 55.1016 213.135 55.1699 212.912 55.1699C212.713 55.1699 212.547 55.1094 212.414 54.9883C212.285 54.8633 212.221 54.6602 212.221 54.3789ZM220.793 50.7051C220.793 52.1855 220.559 53.291 220.09 54.0215C219.625 54.752 218.912 55.1172 217.951 55.1172C217.029 55.1172 216.328 54.7441 215.848 53.998C215.367 53.248 215.127 52.1504 215.127 50.7051C215.127 49.2129 215.359 48.1055 215.824 47.3828C216.289 46.6602 216.998 46.2988 217.951 46.2988C218.881 46.2988 219.586 46.6758 220.066 47.4297C220.551 48.1836 220.793 49.2754 220.793 50.7051ZM216.111 50.7051C216.111 51.9512 216.258 52.8594 216.551 53.4297C216.844 53.9961 217.311 54.2793 217.951 54.2793C218.6 54.2793 219.068 53.9922 219.357 53.418C219.65 52.8398 219.797 51.9355 219.797 50.7051C219.797 49.4746 219.65 48.5742 219.357 48.0039C219.068 47.4297 218.6 47.1426 217.951 47.1426C217.311 47.1426 216.844 47.4258 216.551 47.9922C216.258 48.5547 216.111 49.459 216.111 50.7051ZM223.066 55L226.617 47.3301H221.947V46.4336H227.648V47.2129L224.145 55H223.066ZM229.154 54.3789C229.154 54.1172 229.213 53.9199 229.33 53.7871C229.451 53.6504 229.623 53.582 229.846 53.582C230.072 53.582 230.248 53.6504 230.373 53.7871C230.502 53.9199 230.566 54.1172 230.566 54.3789C230.566 54.6328 230.502 54.8281 230.373 54.9648C230.244 55.1016 230.068 55.1699 229.846 55.1699C229.646 55.1699 229.48 55.1094 229.348 54.9883C229.219 54.8633 229.154 54.6602 229.154 54.3789ZM237.68 55H232.049V54.1621L234.305 51.8945C234.992 51.1992 235.445 50.7031 235.664 50.4062C235.883 50.1094 236.047 49.8203 236.156 49.5391C236.266 49.2578 236.32 48.9551 236.32 48.6309C236.32 48.1738 236.182 47.8125 235.904 47.5469C235.627 47.2773 235.242 47.1426 234.75 47.1426C234.395 47.1426 234.057 47.2012 233.736 47.3184C233.42 47.4355 233.066 47.6484 232.676 47.957L232.16 47.2949C232.949 46.6387 233.809 46.3105 234.738 46.3105C235.543 46.3105 236.174 46.5176 236.631 46.9316C237.088 47.3418 237.316 47.8945 237.316 48.5898C237.316 49.1328 237.164 49.6699 236.859 50.2012C236.555 50.7324 235.984 51.4043 235.148 52.2168L233.273 54.0508V54.0977H237.68V55ZM244.594 50.7051C244.594 52.1855 244.359 53.291 243.891 54.0215C243.426 54.752 242.713 55.1172 241.752 55.1172C240.83 55.1172 240.129 54.7441 239.648 53.998C239.168 53.248 238.928 52.1504 238.928 50.7051C238.928 49.2129 239.16 48.1055 239.625 47.3828C240.09 46.6602 240.799 46.2988 241.752 46.2988C242.682 46.2988 243.387 46.6758 243.867 47.4297C244.352 48.1836 244.594 49.2754 244.594 50.7051ZM239.912 50.7051C239.912 51.9512 240.059 52.8594 240.352 53.4297C240.645 53.9961 241.111 54.2793 241.752 54.2793C242.4 54.2793 242.869 53.9922 243.158 53.418C243.451 52.8398 243.598 51.9355 243.598 50.7051C243.598 49.4746 243.451 48.5742 243.158 48.0039C242.869 47.4297 242.4 47.1426 241.752 47.1426C241.111 47.1426 240.645 47.4258 240.352 47.9922C240.059 48.5547 239.912 49.459 239.912 50.7051ZM251.414 55H245.783V54.1621L248.039 51.8945C248.727 51.1992 249.18 50.7031 249.398 50.4062C249.617 50.1094 249.781 49.8203 249.891 49.5391C250 49.2578 250.055 48.9551 250.055 48.6309C250.055 48.1738 249.916 47.8125 249.639 47.5469C249.361 47.2773 248.977 47.1426 248.484 47.1426C248.129 47.1426 247.791 47.2012 247.471 47.3184C247.154 47.4355 246.801 47.6484 246.41 47.957L245.895 47.2949C246.684 46.6387 247.543 46.3105 248.473 46.3105C249.277 46.3105 249.908 46.5176 250.365 46.9316C250.822 47.3418 251.051 47.8945 251.051 48.5898C251.051 49.1328 250.898 49.6699 250.594 50.2012C250.289 50.7324 249.719 51.4043 248.883 52.2168L247.008 54.0508V54.0977H251.414V55ZM258.328 50.7051C258.328 52.1855 258.094 53.291 257.625 54.0215C257.16 54.752 256.447 55.1172 255.486 55.1172C254.564 55.1172 253.863 54.7441 253.383 53.998C252.902 53.248 252.662 52.1504 252.662 50.7051C252.662 49.2129 252.895 48.1055 253.359 47.3828C253.824 46.6602 254.533 46.2988 255.486 46.2988C256.416 46.2988 257.121 46.6758 257.602 47.4297C258.086 48.1836 258.328 49.2754 258.328 50.7051ZM253.646 50.7051C253.646 51.9512 253.793 52.8594 254.086 53.4297C254.379 53.9961 254.846 54.2793 255.486 54.2793C256.135 54.2793 256.604 53.9922 256.893 53.418C257.186 52.8398 257.332 51.9355 257.332 50.7051C257.332 49.4746 257.186 48.5742 256.893 48.0039C256.604 47.4297 256.135 47.1426 255.486 47.1426C254.846 47.1426 254.379 47.4258 254.086 47.9922C253.793 48.5547 253.646 49.459 253.646 50.7051Z" fill="#7589A2"/>
</svg>
